<svg xmlns="http://www.w3.org/2000/svg" viewBox="0 0 1024 1024" role="img" aria-labelledby="title desc">
  <title id="title">ROAL app icon</title>
  <desc id="desc">A premium rounded-square ROAL mark with a phone call becoming a kitchen ticket.</desc>
  <defs>
    <linearGradient id="bg" x1="126" y1="74" x2="870" y2="948" gradientUnits="userSpaceOnUse">
      <stop offset="0" stop-color="#fff8ff"/>
      <stop offset=".38" stop-color="#d9c5ff"/>
      <stop offset=".72" stop-color="#8b6dff"/>
      <stop offset="1" stop-color="#151018"/>
    </linearGradient>
    <radialGradient id="glow" cx="0" cy="0" r="1" gradientUnits="userSpaceOnUse" gradientTransform="translate(310 224) rotate(51) scale(720)">
      <stop offset="0" stop-color="#ffffff" stop-opacity=".95"/>
      <stop offset=".28" stop-color="#f4edff" stop-opacity=".82"/>
      <stop offset=".62" stop-color="#a98cff" stop-opacity=".2"/>
      <stop offset="1" stop-color="#160f22" stop-opacity="0"/>
    </radialGradient>
    <linearGradient id="panel" x1="228" y1="176" x2="806" y2="856" gradientUnits="userSpaceOnUse">
      <stop offset="0" stop-color="#ffffff" stop-opacity=".88"/>
      <stop offset=".48" stop-color="#ffffff" stop-opacity=".38"/>
      <stop offset="1" stop-color="#ffffff" stop-opacity=".12"/>
    </linearGradient>
    <linearGradient id="ink" x1="280" y1="210" x2="770" y2="814" gradientUnits="userSpaceOnUse">
      <stop offset="0" stop-color="#16111e"/>
      <stop offset=".56" stop-color="#241737"/>
      <stop offset="1" stop-color="#0c0911"/>
    </linearGradient>
    <linearGradient id="accent" x1="304" y1="282" x2="730" y2="738" gradientUnits="userSpaceOnUse">
      <stop offset="0" stop-color="#fff8c7"/>
      <stop offset=".42" stop-color="#d8ff7a"/>
      <stop offset=".74" stop-color="#b996ff"/>
      <stop offset="1" stop-color="#7f61ff"/>
    </linearGradient>
    <filter id="shadow" x="-18%" y="-18%" width="136%" height="136%" color-interpolation-filters="sRGB">
      <feDropShadow dx="0" dy="34" stdDeviation="38" flood-color="#120b19" flood-opacity=".36"/>
      <feDropShadow dx="0" dy="5" stdDeviation="8" flood-color="#ffffff" flood-opacity=".24"/>
    </filter>
    <filter id="soft" x="-10%" y="-10%" width="120%" height="120%" color-interpolation-filters="sRGB">
      <feGaussianBlur stdDeviation="16"/>
    </filter>
    <clipPath id="clip">
      <rect x="56" y="56" width="912" height="912" rx="226"/>
    </clipPath>
  </defs>

  <g clip-path="url(#clip)">
    <rect x="56" y="56" width="912" height="912" rx="226" fill="url(#bg)"/>
    <rect x="56" y="56" width="912" height="912" rx="226" fill="url(#glow)"/>
    <circle cx="778" cy="234" r="144" fill="#fff7c1" opacity=".38" filter="url(#soft)"/>
    <circle cx="228" cy="804" r="186" fill="#6c54ff" opacity=".34" filter="url(#soft)"/>
    <path d="M168 226c96-86 247-112 386-68 164 52 264 197 293 359 18 99 5 206-52 286" fill="none" stroke="#fff" stroke-width="7" stroke-linecap="round" opacity=".34"/>

    <g filter="url(#shadow)">
      <rect x="186" y="176" width="652" height="672" rx="172" fill="url(#panel)" stroke="#fff" stroke-opacity=".58" stroke-width="8"/>
      <path d="M322 320c57-55 125-86 203-86 72 0 133 24 184 72 51 48 77 107 77 177 0 73-24 134-72 183-48 49-111 74-188 74h-31l-125 78c-21 13-47-5-43-30l17-97c-36-25-65-56-85-94-20-38-30-80-30-126 0-57 17-107 50-151h43z" fill="url(#ink)"/>
      <path d="M376 380c36-36 84-57 143-57 49 0 91 15 127 45s57 70 63 118c6 51-7 94-40 129-33 35-76 53-130 53h-54l-74 45 13-74-25-18c-36-26-56-65-60-116-3-50 9-92 37-125z" fill="#fff8ff" opacity=".94"/>
      <path d="M420 402c22-22 51-34 88-34 31 0 57 9 79 27 22 18 35 43 39 74 4 33-5 61-26 84-21 23-49 34-84 34h-76l9-54h63c17 0 31-5 41-16 10-11 14-25 12-42-2-16-9-29-20-38-11-9-25-14-42-14-18 0-33 6-44 17-11 11-16 26-14 44l-54 1c-3-33 7-61 29-83z" fill="url(#accent)"/>
      <path d="M350 354c-22 25-36 57-39 94-4 58 15 107 58 146" fill="none" stroke="#b8ff73" stroke-width="28" stroke-linecap="round"/>
      <path d="M674 616l74 74m0-74l-74 74" stroke="#b8ff73" stroke-width="34" stroke-linecap="round"/>
      <path d="M272 272h58m-58 62h30" stroke="#fff" stroke-width="12" stroke-linecap="round" opacity=".72"/>
    </g>
  </g>
  <rect x="60" y="60" width="904" height="904" rx="222" fill="none" stroke="#ffffff" stroke-opacity=".5" stroke-width="8"/>
</svg>
